<svg xmlns="http://www.w3.org/2000/svg" width="19" height="19" fill-rule="evenodd"><circle fill="#f0f0f0" cx="9.5" cy="9.5" r="9.5"/><path d="M12.804 9.5c0 .826-1.48 2.89-3.304 2.89S6.196 10.326 6.196 9.5c0-1.825 1.48-3.304 3.304-3.304s3.304 1.48 3.304 3.304z" fill="#d80027"/><path d="M12.804 9.5c0 1.825-1.48 3.304-3.304 3.304S6.196 11.325 6.196 9.5" fill="#0052b4"/><path d="M13.005 12.42l.876-.876.584.584-.876.876zm-1.46 1.46l.876-.876.584.584-.876.876zm3.212.293l.876-.876.584.584-.876.876zm-1.46 1.46l.876-.876.584.584-.876.876zm.583-2.336l.876-.876.584.584-.876.876zm-1.46 1.46l.876-.876.584.584-.876.876zm2.338-8.177L12.42 4.243l.584-.584 2.336 2.336zm-2.338-.585l-.876-.876.584-.584.876.876zm1.46 1.46l-.876-.876.584-.584.876.876zm.293-3.213l-.876-.876.584-.584.876.876zm1.46 1.46l-.876-.876.584-.584.876.876zM3.367 13.297l2.336 2.336-.584.584-2.336-2.336zm2.336.583l.876.876-.584.584-.876-.876zm-1.46-1.46l.876.876-.584.584-.876-.876zm.877-.876l2.336 2.336-.584.584-2.336-2.336zm.583-8.177L3.367 5.703l-.584-.584L5.12 2.782zm.877.876L4.243 6.58l-.584-.584L5.995 3.66zm.876.877L5.12 7.456l-.584-.584 2.336-2.336z" fill="#000"/></svg>