<?xml version="1.0" encoding="UTF-8"?>
<svg width="473px" height="115px" viewBox="0 0 473 115" version="1.1" xmlns="http://www.w3.org/2000/svg" xmlns:xlink="http://www.w3.org/1999/xlink">
    <!-- Generator: Sketch 52.5 (67469) - http://www.bohemiancoding.com/sketch -->
    <title>img-midnight-blue</title>
    <desc>Created with Sketch.</desc>
    <defs>
        <linearGradient x1="-0.27972028%" y1="99.2037431%" x2="100.06993%" y2="0.79624933%" id="linearGradient-1">
            <stop stop-color="#37A94B" offset="0%"></stop>
            <stop stop-color="#188253" offset="100%"></stop>
        </linearGradient>
        <linearGradient x1="-0.0126270116%" y1="50.0000178%" x2="99.9908045%" y2="50.0000178%" id="linearGradient-2">
            <stop stop-color="#B81D27" offset="0%"></stop>
            <stop stop-color="#E1663D" offset="50%"></stop>
            <stop stop-color="#E98B40" offset="74%"></stop>
            <stop stop-color="#F3C020" offset="100%"></stop>
        </linearGradient>
        <linearGradient x1="34.6680958%" y1="135.730449%" x2="50.7635989%" y2="-10.4170272%" id="linearGradient-3">
            <stop stop-color="#B81D27" offset="0%"></stop>
            <stop stop-color="#E1663D" offset="32%"></stop>
            <stop stop-color="#E98B40" offset="74%"></stop>
        </linearGradient>
        <linearGradient x1="-1481.09504%" y1="49.9550764%" x2="199.405057%" y2="49.9550764%" id="linearGradient-4">
            <stop stop-color="#B81D27" offset="0%"></stop>
            <stop stop-color="#E1663D" offset="50%"></stop>
            <stop stop-color="#E98B40" offset="74%"></stop>
            <stop stop-color="#F3C020" offset="100%"></stop>
        </linearGradient>
        <linearGradient x1="-44638.3129%" y1="-10873.3154%" x2="-44618.7452%" y2="-10873.3154%" id="linearGradient-5">
            <stop stop-color="#B81D27" offset="0%"></stop>
            <stop stop-color="#E1663D" offset="32%"></stop>
            <stop stop-color="#E98B40" offset="74%"></stop>
        </linearGradient>
        <linearGradient x1="-12.0491164%" y1="8.6112202%" x2="110.407933%" y2="125.178579%" id="linearGradient-6">
            <stop stop-color="#DB4039" offset="14%"></stop>
            <stop stop-color="#E1663D" offset="50%"></stop>
            <stop stop-color="#E98B40" offset="74%"></stop>
            <stop stop-color="#F3C020" offset="100%"></stop>
        </linearGradient>
        <linearGradient x1="-33032.2581%" y1="-36654.2169%" x2="-33017.2043%" y2="-36654.2169%" id="linearGradient-7">
            <stop stop-color="#B81D27" offset="0%"></stop>
            <stop stop-color="#E1663D" offset="32%"></stop>
            <stop stop-color="#E98B40" offset="74%"></stop>
        </linearGradient>
        <linearGradient x1="-32612.9032%" y1="-36960.8434%" x2="-32598.2079%" y2="-36960.8434%" id="linearGradient-8">
            <stop stop-color="#DB4039" offset="14%"></stop>
            <stop stop-color="#E1663D" offset="50%"></stop>
            <stop stop-color="#E98B40" offset="74%"></stop>
            <stop stop-color="#F3C020" offset="100%"></stop>
        </linearGradient>
        <linearGradient x1="-0.0764915859%" y1="99.1895803%" x2="100.101989%" y2="0.781476122%" id="linearGradient-9">
            <stop stop-color="#37A94B" offset="0%"></stop>
            <stop stop-color="#188253" offset="100%"></stop>
        </linearGradient>
        <linearGradient x1="-0.0387451273%" y1="49.9520063%" x2="100.005167%" y2="49.9520063%" id="linearGradient-10">
            <stop stop-color="#B81D27" offset="0%"></stop>
            <stop stop-color="#E1663D" offset="50%"></stop>
            <stop stop-color="#E98B40" offset="74%"></stop>
            <stop stop-color="#F3C020" offset="100%"></stop>
        </linearGradient>
        <linearGradient x1="39.6498603%" y1="132.303713%" x2="55.4610165%" y2="-11.3647898%" id="linearGradient-11">
            <stop stop-color="#B81D27" offset="0%"></stop>
            <stop stop-color="#E1663D" offset="32%"></stop>
            <stop stop-color="#E98B40" offset="74%"></stop>
        </linearGradient>
        <linearGradient x1="-1501.38212%" y1="49.8524106%" x2="202.978033%" y2="49.8524106%" id="linearGradient-12">
            <stop stop-color="#B81D27" offset="0%"></stop>
            <stop stop-color="#E1663D" offset="50%"></stop>
            <stop stop-color="#E98B40" offset="74%"></stop>
            <stop stop-color="#F3C020" offset="100%"></stop>
        </linearGradient>
        <linearGradient x1="-19427.0845%" y1="-3056.47753%" x2="-19407.5972%" y2="-3056.47753%" id="linearGradient-13">
            <stop stop-color="#B81D27" offset="0%"></stop>
            <stop stop-color="#E1663D" offset="32%"></stop>
            <stop stop-color="#E98B40" offset="74%"></stop>
        </linearGradient>
        <linearGradient x1="-12.1911246%" y1="-4.04008992%" x2="110.011716%" y2="112.304647%" id="linearGradient-14">
            <stop stop-color="#DB4039" offset="14%"></stop>
            <stop stop-color="#E1663D" offset="50%"></stop>
            <stop stop-color="#E98B40" offset="74%"></stop>
            <stop stop-color="#F3C020" offset="100%"></stop>
        </linearGradient>
        <linearGradient x1="-13436.5183%" y1="-10454.1254%" x2="-13421.7277%" y2="-10454.1254%" id="linearGradient-15">
            <stop stop-color="#B81D27" offset="0%"></stop>
            <stop stop-color="#E1663D" offset="32%"></stop>
            <stop stop-color="#E98B40" offset="74%"></stop>
        </linearGradient>
        <linearGradient x1="-13328.2723%" y1="-10539.1639%" x2="-13313.6126%" y2="-10539.1639%" id="linearGradient-16">
            <stop stop-color="#DB4039" offset="14%"></stop>
            <stop stop-color="#E1663D" offset="50%"></stop>
            <stop stop-color="#E98B40" offset="74%"></stop>
            <stop stop-color="#F3C020" offset="100%"></stop>
        </linearGradient>
    </defs>
    <g id="Mobile-home" stroke="none" stroke-width="1" fill="none" fill-rule="evenodd">
        <g id="Artboard" transform="translate(-2553.000000, -9012.000000)">
            <g id="Group-12" transform="translate(2553.000000, 9012.000000)">
                <g id="Asset-3-Copy" transform="translate(244.000000, 40.000000)">
                    <path d="M43.6013793,21.6734483 C43.1449032,21.6736724 42.6947467,21.7801611 42.2865517,21.9844828 C41.4165252,22.3986568 40.7134593,23.0967365 40.2931034,23.9637931 C40.091295,24.3754137 39.9849762,24.8272688 39.982069,25.2856897 L39.982069,25.5684483 C39.9856011,26.0290581 40.0918608,26.4830766 40.2931034,26.8974138 C40.4977616,27.334087 40.7777275,27.7313036 41.1201724,28.0708621 C41.4581511,28.4107194 41.8498381,28.6925429 42.2794828,28.905 C42.6855391,29.1167374 43.1363685,29.2282329 43.5943103,29.2301724 L43.8558621,29.2301724 C44.3138039,29.2282329 44.7646333,29.1167374 45.1706897,28.905 C45.6003343,28.6925429 45.9920213,28.4107194 46.33,28.0708621 C46.6724449,27.7313036 46.9524108,27.334087 47.157069,26.8974138 C47.3583116,26.4830766 47.4645713,26.0290581 47.4681034,25.5684483 L47.4681034,25.2856897 C47.4651962,24.8272688 47.3588774,24.3754137 47.157069,23.9637931 C46.7385033,23.0978936 46.0380758,22.3999587 45.1706897,21.9844828 C44.7624947,21.7801611 44.3123382,21.6736724 43.8558621,21.6734483 L43.6013793,21.6734483 Z M40.9081034,32.3475862 C40.0176238,31.949334 39.2077776,31.3910672 38.5187931,30.7005172 C37.8283808,30.0098972 37.2680504,29.2005311 36.8646552,28.3112069 C36.4638983,27.4224175 36.256674,26.4585836 36.2567241,25.4836207 C36.2553203,24.4971291 36.4624939,23.5214859 36.8646552,22.6206897 C37.6717048,20.8197396 39.1099813,19.3764341 40.9081034,18.5631034 C41.8085662,18.1599181 42.7844315,17.9526974 43.7710345,17.9551724 C44.7459974,17.9551223 45.7098313,18.1623466 46.5986207,18.5631034 C47.4849564,18.9607098 48.2883622,19.5218948 48.9667241,20.2172414 C49.6471154,20.9169643 50.1997664,21.7303901 50.5996552,22.6206897 C51.0010315,23.5092752 51.2082849,24.4732442 51.2075862,25.4482759 C51.2048736,26.4229432 50.9977719,27.3862066 50.5996552,28.2758621 C50.200762,29.1650019 49.6506528,29.9782067 48.9737931,30.6793103 C48.2918957,31.372307 47.489419,31.9352384 46.6056897,32.3405172 C45.7188814,32.7488561 44.7544063,32.9610407 43.7781034,32.9625862 C42.7906425,32.9661242 41.8140667,32.7563412 40.9151724,32.3475862 L40.9081034,32.3475862 Z" id="Shape" fill="#FFFFFF" fill-rule="nonzero"></path>
                    <path d="M100.570172,23.575 C101.027182,23.5723239 101.477309,23.463422 101.885,23.2568966 C102.752386,22.8414206 103.452814,22.1434857 103.871379,21.2775862 C104.072384,20.8681944 104.178688,20.4188185 104.182414,19.9627586 L104.182414,17.9763793 L107.914854,17.9763793 L107.914828,19.7931034 C107.917121,20.6212248 107.768607,21.4428432 107.476552,22.2177586 C107.184058,22.9806677 106.778994,23.6954872 106.274828,24.3384483 C105.773825,24.9880013 105.172488,25.5535444 104.493448,26.0137931 C103.823262,26.4795765 103.080325,26.8307399 102.295,27.052931 L102.295,32.9201724 L98.5625862,32.9201724 L98.5625862,27.0387931 C97.7707555,26.8223177 97.0222365,26.4707768 96.35,25.9996552 C95.6804857,25.5382473 95.0846583,24.9781696 94.5827586,24.3384483 C94.0772928,23.698767 93.6764539,22.9829832 93.3951724,22.2177586 C93.1053758,21.4424355 92.9592545,20.6208026 92.9639655,19.7931034 L92.9638551,17.9763793 L96.6963793,17.9763793 L96.6963793,19.9627586 C96.7001051,20.4188185 96.806409,20.8681944 97.0074138,21.2775862 C97.4188014,22.1388932 98.1086915,22.836255 98.9655172,23.2568966 C99.3732081,23.463422 99.8233356,23.5723239 100.280345,23.575 L100.570172,23.575 Z" id="Path" fill="#FFFFFF"></path>
                    <path d="M135.017241,21.6734483 C134.560765,21.6736724 134.110609,21.7801611 133.702414,21.9844828 C132.835028,22.3999587 132.1346,23.0978936 131.716034,23.9637931 C131.514226,24.3754137 131.407907,24.8272688 131.405,25.2856897 L131.405,25.5684483 C131.408532,26.0290581 131.514792,26.4830766 131.716034,26.8974138 C131.920693,27.334087 132.200659,27.7313036 132.543103,28.0708621 C132.881082,28.4107194 133.272769,28.6925429 133.702414,28.905 C134.10847,29.1167374 134.5593,29.2282329 135.017241,29.2301724 L135.278793,29.2301724 C135.736735,29.2282329 136.187564,29.1167374 136.593621,28.905 C137.023265,28.6925429 137.414952,28.4107194 137.752931,28.0708621 C138.085286,27.7290407 138.355587,27.3319616 138.551724,26.8974138 C138.752967,26.4830766 138.859226,26.0290581 138.862759,25.5684483 L138.862759,25.2856897 C138.859851,24.8272688 138.753533,24.3754137 138.551724,23.9637931 C138.133159,23.0978936 137.432731,22.3999587 136.565345,21.9844828 C136.15715,21.7801611 135.706993,21.6736724 135.250517,21.6734483 L135.017241,21.6734483 Z M132.323966,32.3475862 C131.433486,31.949334 130.62364,31.3910672 129.934655,30.7005172 C129.244243,30.0098972 128.683912,29.2005311 128.280517,28.3112069 C127.87976,27.4224175 127.672536,26.4585836 127.672586,25.4836207 C127.670184,24.4947473 127.87738,23.5165917 128.280517,22.6136207 C129.087567,20.8126706 130.525843,19.3693652 132.323966,18.5560345 C134.136627,17.7452453 136.20889,17.7452453 138.021552,18.5560345 C138.907887,18.9536409 139.711293,19.5148258 140.389655,20.2101724 C141.066165,20.9062172 141.616333,21.7147249 142.015517,22.5994828 C142.416894,23.4880683 142.624147,24.4520373 142.623448,25.427069 C142.620736,26.4017363 142.413634,27.3649997 142.015517,28.2546552 C141.616624,29.143795 141.066515,29.9569998 140.389655,30.6581034 C139.707758,31.3511001 138.905281,31.9140315 138.021552,32.3193103 C136.211848,33.1438378 134.13367,33.1438378 132.323966,32.3193103 L132.323966,32.3475862 Z" id="Shape" fill="#FFFFFF" fill-rule="nonzero"></path>
                    <polygon id="Path" fill="#FFFFFF" points="155.185 21.6805172 151.473793 21.6805172 151.473793 32.9272414 147.741379 32.9272414 147.741379 21.6805172 144.058448 21.6805172 144.058448 17.9763793 155.185 17.9763793"></polygon>
                    <path d="M167.675862,23.582069 L167.675862,27.3144828 L160.833103,27.3144828 C161.172669,27.8605331 161.631947,28.322228 162.176207,28.6646552 C162.692205,29.013478 163.29943,29.2027749 163.922241,29.2089655 L167.675862,29.2089655 L167.675862,32.9343134 L164.091897,32.9343103 C163.116842,32.9352261 162.152828,32.7279631 161.26431,32.3263793 C160.375621,31.9280409 159.56619,31.3724551 158.875,30.6863793 C158.18334,30.0021955 157.622727,29.1972121 157.220862,28.3112069 C156.820105,27.4224175 156.612881,26.4585836 156.612931,25.4836207 C156.610456,24.4970177 156.817677,23.5211524 157.220862,22.6206897 C157.624257,21.7313654 158.184588,20.9219994 158.875,20.2313793 C159.563984,19.5408293 160.373831,18.9825626 161.26431,18.5843103 C162.152359,18.1805007 163.116351,17.9708325 164.091897,17.9693103 L167.675862,17.9693103 L167.675862,21.7017241 L163.922241,21.7017241 C163.300029,21.7049873 162.692628,21.8918798 162.176207,22.2389655 C161.634662,22.5847745 161.176065,23.0457849 160.833103,23.5891379 L167.675862,23.582069 Z" id="Path" fill="#FFFFFF"></path>
                    <path d="M180.654483,32.9272633 L178.533793,32.9272414 C177.54719,32.9297164 176.571325,32.7224957 175.670862,32.3193103 C174.781538,31.9159151 173.972172,31.3555847 173.281552,30.6651724 C172.588473,29.9767817 172.027784,29.1668977 171.627414,28.2758621 C171.223604,27.3878136 171.013936,26.4238219 171.012414,25.4482759 L171.012414,17.9763793 L174.744828,17.9763793 L174.744828,25.5825862 C174.748553,26.0386461 174.854857,26.488022 175.055862,26.8974138 C175.263292,27.3282654 175.543031,27.7203785 175.882931,28.0567241 C176.217394,28.3988297 176.609917,28.6788616 177.042241,28.8837931 C177.451633,29.0847979 177.901009,29.1911018 178.357069,29.1948276 L180.654483,29.1948276 L180.654483,32.9272633 Z" id="Path" fill="#FFFFFF"></path>
                    <path d="M90.2494828,20.5 C89.5045806,19.4323206 88.4366122,18.6319638 87.2027586,18.2167241 C86.6908431,18.0320461 86.1492536,17.9433788 85.6051724,17.9551724 C84.2331602,18.0165332 82.9287647,18.5683928 81.9293103,19.5103448 C80.9263008,18.5695051 79.6201567,18.0179664 78.2463793,17.9551724 C77.7045615,17.9427815 77.1651799,18.0314799 76.6558621,18.2167241 C75.4194126,18.6306336 74.3488017,19.4311134 73.602069,20.5 C72.8903398,21.6453241 72.5359576,22.9767183 72.5841379,24.3243103 L72.5841379,32.9272414 L76.3448276,32.9272414 L76.3448276,23.6951724 C76.3448276,22.6683989 77.177192,21.8360345 78.2039655,21.8360345 C79.230739,21.8360345 80.0631034,22.6683989 80.0631034,23.6951724 L80.0631034,32.9272414 L83.8591379,32.9272414 L83.8591379,23.6951724 C83.8591379,22.6683989 84.6915023,21.8360345 85.7182759,21.8360345 C86.7450494,21.8360345 87.5774138,22.6683989 87.5774138,23.6951724 L87.5774138,32.9272414 L91.3027586,32.9272414 L91.3027586,24.3455172 C91.3446467,22.9871291 90.9777139,21.6474548 90.2494828,20.5" id="Path" fill="#FFFFFF"></path>
                    <path d="M65.4656897,17.9763793 L65.4656897,23.4406897 C64.2876913,23.0799401 63.0641565,22.8895066 61.8322414,22.8751724 C60.6053938,22.8656404 59.3852338,23.0566635 58.22,23.4406897 L58.22,17.9763793 L54.4875862,17.9763793 L54.4875862,32.9272414 L58.22,32.9272414 L58.22,27.3286207 C59.3852338,26.9445946 60.6053938,26.7535715 61.8322414,26.7631034 C63.0644499,26.7738817 64.2884926,26.9643942 65.4656897,27.3286207 L65.4656897,32.9272414 L69.1981034,32.9272414 L69.1981034,17.9763793 L65.4656897,17.9763793 Z" id="Path" fill="#FFFFFF"></path>
                    <path d="M121.416552,17.9763793 L121.416552,23.4406897 C120.236003,23.0805003 119.010218,22.890087 117.776034,22.8751724 C116.549252,22.866524 115.329235,23.0575248 114.163793,23.4406897 L114.163793,17.9763793 L110.438448,17.9763793 L110.438448,32.9272414 L114.163793,32.9272414 L114.163793,27.3286207 C115.329235,26.9454558 116.549252,26.754455 117.776034,26.7631034 C119.010549,26.7739999 120.236907,26.9645021 121.416552,27.3286207 L121.416552,32.9272414 L125.12069,32.9272414 L125.12069,17.9763793 L121.416552,17.9763793 Z" id="Path" fill="#FFFFFF"></path>
                    <path d="M192.466724,25.1372414 C192.954483,25.1372414 193.38569,25.1372414 193.746207,25.1372414 C194.106724,25.1372414 194.523793,25.1372414 194.976207,25.1372414 C194.976207,25.4553448 194.976207,25.7310345 194.976207,25.9643103 C194.976207,26.1975862 194.919655,26.452069 194.870172,26.7348276 C194.82069,27.0175862 194.742931,27.2862069 194.665172,27.5477586 C194.587414,27.8093103 194.502586,28.0284483 194.424828,28.2122414 C194.347069,28.3960345 194.241034,28.6222414 194.106724,28.9191379 C194.417759,29.3574138 194.714655,29.7462069 194.990345,30.0925862 C195.266034,30.4389655 195.520517,30.7641379 195.732586,31.0681034 L194.078448,31.0681034 C193.52,31.0681034 192.989828,31.0681034 192.495,31.0681034 L191.915345,30.2622414 C191.682069,30.4318966 191.477069,30.5732759 191.314483,30.6722414 C191.116472,30.7916652 190.908308,30.8933816 190.692414,30.9762069 C190.435688,31.0747956 190.170749,31.1504926 189.90069,31.2024138 C189.618367,31.2530748 189.332175,31.2790923 189.045345,31.2801724 C188.341594,31.2893861 187.644337,31.1446269 187.002414,30.8560345 C186.401129,30.6034899 185.902888,30.1550736 185.588621,29.5836207 C185.280418,29.0227492 185.119872,28.3927279 185.122069,27.7527586 C185.110706,27.0483653 185.310098,26.3566461 185.694655,25.7663793 C186.21678,25.0324236 186.910972,24.4377487 187.716379,24.0344828 C187.553042,23.7444331 187.424895,23.4359308 187.334655,23.1155172 C187.269549,22.8853193 187.23392,22.6477896 187.228621,22.4086207 C187.233361,21.6175485 187.600739,20.872371 188.225345,20.3868966 C188.517095,20.147502 188.857077,19.9738945 189.222069,19.877931 C189.609041,19.7882884 190.0054,19.7455671 190.402586,19.7506897 C191.222603,19.7579216 192.038872,19.8623281 192.83431,20.0617241 L192.876724,22.2389655 L192.876724,22.5782759 C192.606302,22.4475245 192.324792,22.341071 192.035517,22.2601724 C191.830013,22.2065254 191.618753,22.1780409 191.406379,22.1753448 C191.194204,22.1713073 190.983167,22.2072795 190.78431,22.2813793 C190.612289,22.3432667 190.467276,22.4632773 190.37431,22.6206897 C190.284937,22.7575196 190.235938,22.9167682 190.232931,23.0801724 C190.233619,23.1829201 190.24788,23.2851266 190.275345,23.3841379 C190.317891,23.5365839 190.37225,23.6854828 190.437931,23.8294828 C190.54808,24.073952 190.67565,24.3101922 190.819655,24.5363793 C190.982241,24.805 191.123621,25.017069 191.236724,25.1725862 C191.349828,25.3281034 191.519483,25.5472414 191.752759,25.83 L192.325345,26.5863793 C192.325345,26.4662069 192.374828,26.3601724 192.388966,26.2824138 C192.403103,26.2046552 192.388966,26.0562069 192.431379,25.8582759 C192.473793,25.6603448 192.459655,25.3917241 192.466724,25.1372414 Z M190.543966,28.3324138 C190.360172,28.0708621 190.126897,27.7598276 189.837069,27.3922414 C189.547241,27.0246552 189.250345,26.6217241 188.93931,26.1905172 L188.564655,26.4662069 C188.47967,26.5337255 188.39937,26.6069401 188.32431,26.6853448 C188.247157,26.7738281 188.180721,26.8711105 188.126379,26.9751724 C188.066539,27.081714 188.02136,27.1958488 187.992069,27.3144828 C187.961296,27.4274482 187.944674,27.5437988 187.942586,27.6608621 C187.941359,27.8928498 188.00502,28.1205596 188.126379,28.3182759 C188.239588,28.5148449 188.409624,28.6725597 188.614138,28.7706897 C188.834682,28.8754764 189.076969,28.9263567 189.321034,28.9191379 C189.483848,28.9190571 189.64578,28.8952435 189.801724,28.8484483 C189.935013,28.8060538 190.061273,28.7441149 190.176379,28.6646552 C190.30569,28.5616503 190.428456,28.4506882 190.543966,28.3324138 Z" id="Shape" fill="#FFFFFF" fill-rule="nonzero"></path>
                    <path d="M206.463276,21.6451724 L206.194655,21.6451724 C205.737646,21.6478486 205.287518,21.7567504 204.879828,21.9632759 C204.450056,22.1695185 204.058128,22.4467361 203.720517,22.7832759 C203.3794,23.1217935 203.095325,23.5132928 202.87931,23.9425862 C202.678306,24.351978 202.572002,24.8013539 202.568276,25.2574138 L202.568276,25.5967241 C202.572002,26.0527841 202.678306,26.50216 202.87931,26.9115517 C203.089179,27.3409556 203.368642,27.7326812 203.706379,28.0708621 C204.042175,28.411408 204.434406,28.6912318 204.86569,28.897931 C205.275081,29.0989358 205.724457,29.2052398 206.180517,29.2089655 L206.449138,29.2089655 C207.070654,29.201203 207.676798,29.014697 208.195172,28.6717241 C208.737645,28.3264385 209.194506,27.8623257 209.531207,27.3144828 L212.500172,29.527069 C211.996472,30.1634163 211.443378,30.7590553 210.846034,31.3084483 C210.209395,31.8219803 209.49304,32.2279146 208.725345,32.5101724 C207.021137,33.1430503 205.135903,33.0769908 203.480172,32.3263793 C202.588597,31.9325553 201.776472,31.3791601 201.083793,30.6934483 C200.391835,30.0083416 199.833317,29.2005281 199.436724,28.3112069 C199.030608,27.4239254 198.82083,26.4594269 198.821724,25.4836207 C198.818279,24.4938935 199.028035,23.5150332 199.436724,22.6136207 C199.831321,21.7169124 200.38992,20.9017884 201.083793,20.2101724 C201.775334,19.5158124 202.587324,18.9529287 203.480172,18.5489655 C205.138685,17.7890737 207.031971,17.7229105 208.739483,18.3651724 C209.503684,18.6518013 210.219018,19.0547723 210.860172,19.5598276 C211.452977,20.1119644 212.001342,20.7099655 212.500172,21.3482759 L209.531207,23.5467241 C209.196861,22.998938 208.739409,22.5366448 208.195172,22.1965517 C207.683603,21.848606 207.081846,21.6570262 206.463276,21.6451724 Z" id="Path" fill="#FFFFFF"></path>
                    <path d="M218.537069,32.3263793 C217.645635,31.9298273 216.835494,31.3713573 216.147759,30.6793103 C215.453625,29.9864034 214.892911,29.1716903 214.493621,28.2758621 C214.093888,27.3867363 213.886711,26.4231246 213.88569,25.4482759 C213.883928,24.4594689 214.091096,23.4814458 214.493621,22.5782759 C214.894169,21.6831537 215.454734,20.8686575 216.147759,20.1748276 C216.835494,19.4827807 217.645635,18.9243106 218.537069,18.5277586 C220.347332,17.717277 222.417323,17.717277 224.227586,18.5277586 C225.11453,18.9211621 225.918268,19.48018 226.59569,20.1748276 C227.275401,20.870936 227.825923,21.682358 228.221552,22.5712069 C229.035091,24.368489 229.035091,26.4290972 228.221552,28.2263793 C227.827784,29.1204682 227.277146,29.9368495 226.59569,30.6368966 C225.91514,31.3314837 225.112352,31.8946337 224.227586,32.2981034 C222.420492,33.1232839 220.344164,33.1232839 218.537069,32.2981034 L218.537069,32.3263793 Z M221.258621,21.6451724 C220.799252,21.647011 220.346639,21.7559286 219.936724,21.9632759 C219.508218,22.1716645 219.116626,22.4486442 218.777414,22.7832759 C218.440874,23.1208862 218.163656,23.5128146 217.957414,23.9425862 C217.753092,24.3507812 217.646603,24.8009377 217.646379,25.2574138 L217.646379,25.5472414 C217.647229,26.0081674 217.753627,26.4627768 217.957414,26.8762069 C218.162285,27.3109923 218.439567,27.7077926 218.777414,28.0496552 C219.118087,28.3863381 219.509233,28.6677727 219.936724,28.8837931 C220.345,29.0963682 220.798321,29.2078802 221.258621,29.2089655 L221.520172,29.2089655 C221.978114,29.207026 222.428944,29.0955305 222.835,28.8837931 C223.264645,28.671336 223.656332,28.3895125 223.99431,28.0496552 C224.325925,27.7019004 224.596035,27.3003221 224.793103,26.862069 C224.993453,26.4474154 225.099665,25.9936005 225.104138,25.5331034 L225.104138,25.2432759 C225.100412,24.7872159 224.994108,24.33784 224.793103,23.9284483 C224.583913,23.4986405 224.304374,23.1068084 223.966034,22.7691379 C223.629403,22.4314379 223.237264,22.1540716 222.806724,21.9491379 C222.399033,21.7426125 221.948906,21.6337106 221.491897,21.6310345 L221.258621,21.6451724 Z" id="Shape" fill="#FFFFFF" fill-rule="nonzero"></path>
                    <path d="M24.2465517,0.0565517241 C23.9013711,0.0198969859 23.5545336,0.00102147436 23.2074138,-1.38018937e-15 C18.2647175,-0.0394359842 14.2154305,3.91516781 14.137931,8.85741379 C14.4807475,8.89406363 14.8252316,8.91293947 15.17,8.91396552 C20.1138879,8.9534419 24.1652141,4.99992809 24.2465517,0.0565517241 Z" id="Path" fill="url(#linearGradient-1)"></path>
                    <path d="M28.6505172,18.5772414 C26.0628583,13.5458005 20.8773392,10.3853631 15.2194828,10.3913793 C13.073072,10.7223575 11.0531344,11.617668 9.36637931,12.9856897 C8.91347996,13.3521213 8.48819106,13.7514203 8.09396552,14.1803448 C4.88441233,17.6252145 3.93607655,22.606039 5.65517241,26.9893103 C5.57736651,26.4793649 5.53955013,25.9641167 5.54206897,25.4482759 C5.54698264,22.1261995 7.26665966,19.0420685 10.090143,17.2915951 C12.9136263,15.5411217 16.4407616,15.3723896 19.4184483,16.8453448 C24.152198,17.9976897 27.7475867,21.8542581 28.5656897,26.657069 C29.1330373,29.3474999 28.676828,32.1528085 27.2862069,34.5248276 C30.7577766,29.9089944 31.2876134,23.7156688 28.6505172,18.5772414 Z" id="Path" fill="url(#linearGradient-2)"></path>
                    <path d="M28.5656897,26.657069 C27.7686222,21.8438782 24.1640251,17.9774324 19.4184483,16.8453448 C22.4436002,18.3307823 24.4700368,21.2918359 24.7593716,24.6495664 C25.0487064,28.0072968 23.5586868,31.2713626 20.8322414,33.2524138 L20.7898276,33.3018966 C20.3919411,33.7271826 19.9669125,34.1262372 19.5174138,34.4965517 C14.7876069,38.3390038 7.95062081,38.112913 3.485,33.9663793 C2.70514463,33.2957364 2.03910097,32.5031683 1.51275862,31.6194828 C2.35195172,33.4741239 3.55369316,35.1421411 5.04724138,36.5253448 C11.1574259,42.1815577 20.6957316,41.8144564 26.3531034,35.7053448 C26.7154567,35.3421794 27.0443176,34.9470732 27.3356897,34.5248276 C28.6146128,32.1137901 29.047719,29.3434036 28.5656897,26.657069 Z" id="Path" fill="url(#linearGradient-3)"></path>
                    <path d="M28.5656897,26.657069 C29.0326262,29.3489363 28.5820463,32.1196291 27.2862069,34.5248276 C28.676828,32.1528085 29.1330373,29.3474999 28.5656897,26.657069 Z" id="Path" fill="url(#linearGradient-4)"></path>
                    <path d="M28.5656897,26.657069 C29.0326262,29.3489363 28.5820463,32.1196291 27.2862069,34.5248276 C28.676828,32.1528085 29.1330373,29.3474999 28.5656897,26.657069 Z" id="Path" fill="url(#linearGradient-5)"></path>
                    <path d="M3.44965517,33.9663793 C7.91527598,38.112913 14.7522621,38.3390038 19.482069,34.4965517 C19.9315677,34.1262372 20.3565962,33.7271826 20.7544828,33.3018966 L20.7968966,33.2524138 C18.0924434,35.2159559 14.5623009,35.6340759 11.4739781,34.3566463 C8.38565521,33.0792168 6.18235231,30.2895597 5.65517241,26.9893103 C3.92682137,22.6126911 4.86125445,17.6327125 8.05862069,14.1803448 C8.45284623,13.7514203 8.87813513,13.3521213 9.33103448,12.9856897 C11.0177895,11.617668 13.0377271,10.7223575 15.1841379,10.3913793 C11.0052521,10.4053225 7.02049263,12.1569777 4.18482759,15.2265517 C4.00810345,15.4103448 3.84551724,15.6012069 3.68293103,15.792069 C-0.113103448,20.3162069 -1.19465517,26.6853448 1.47741379,31.6194828 C2.0328109,32.482129 2.69552781,33.2707383 3.44965517,33.9663793 Z" id="Path" fill="url(#linearGradient-6)"></path>
                    <path d="M3.44965517,33.9663793 C2.69552781,33.2707383 2.0328109,32.482129 1.47741379,31.6194828 C2.00375615,32.5031683 2.6697998,33.2957364 3.44965517,33.9663793 Z" id="Path" fill="url(#linearGradient-7)"></path>
                    <path d="M3.44965517,33.9663793 C2.69552781,33.2707383 2.0328109,32.482129 1.47741379,31.6194828 C2.00375615,32.5031683 2.6697998,33.2957364 3.44965517,33.9663793 Z" id="Path" fill="url(#linearGradient-8)"></path>
                </g>
                <g id="Asset-1-Copy">
                    <path d="M6.9357513,105.073057 C6.54091945,105.074586 6.15165526,105.166298 5.79766839,105.341192 C5.41357099,105.517703 5.06439132,105.761927 4.76683938,106.062176 C4.47138313,106.354729 4.22760792,106.695209 4.04585492,107.069171 C3.87146063,107.425459 3.77980133,107.816539 3.77772021,108.213212 L3.77772021,108.445596 C3.78053061,108.844092 3.87212984,109.236951 4.04585492,109.595596 C4.22167999,109.980086 4.46598558,110.329382 4.76683938,110.626425 C5.05892559,110.924005 5.39943249,111.169815 5.7738342,111.353368 C6.12599791,111.534639 6.51584841,111.630571 6.9119171,111.63342 L7.15025907,111.63342 C7.54823414,111.630616 7.9400294,111.534707 8.29430052,111.353368 C8.66777135,111.168268 9.00803361,110.922634 9.30129534,110.626425 C9.5973849,110.331212 9.83939428,109.986349 10.0163212,109.607513 C10.1900463,109.248868 10.2816456,108.856009 10.284456,108.457513 L10.284456,108.207254 C10.2823748,107.81058 10.1907155,107.4195 10.0163212,107.063212 C9.8346468,106.690707 9.59309786,106.350526 9.30129534,106.056218 C9.00926098,105.761723 8.66859774,105.519832 8.29430052,105.341192 C7.93822268,105.166209 7.54700601,105.074518 7.15025907,105.073057 L6.9357513,105.073057 Z M4.6,114.34456 C3.04262072,113.636947 1.79538426,112.387593 1.09041451,110.829016 C0.742455334,110.055397 0.563686108,109.216401 0.566062176,108.368135 C0.562189529,107.510114 0.740931361,106.661091 1.09041451,105.877461 C1.79145411,104.314753 3.03967755,103.062291 4.6,102.355959 C5.3786533,102.00345 6.22403223,101.822588 7.07875648,101.825648 C7.9275932,101.823851 8.76687977,102.004714 9.53963731,102.355959 C10.3096671,102.700055 11.0072792,103.187373 11.5953368,103.791969 C12.1853715,104.393892 12.6635549,105.096034 13.007513,105.865544 C13.3575225,106.63871 13.5383273,107.477725 13.5378238,108.326425 C13.537834,109.17891 13.3570891,110.021709 13.007513,110.799223 C12.6651238,111.573151 12.1868421,112.279474 11.5953368,112.884715 C11.004689,113.492011 10.3053811,113.983144 9.53367876,114.332642 C8.76268664,114.690517 7.9227994,114.875577 7.07279793,114.87487 C6.21807368,114.87793 5.37269475,114.697068 4.59404145,114.34456 L4.6,114.34456 Z" id="Shape" fill="#FFFFFF" fill-rule="nonzero"></path>
                    <path d="M56.7373057,106.723575 C57.1348287,106.722838 57.5266487,106.628965 57.8813472,106.449482 C58.2556444,106.270841 58.5963076,106.02895 58.888342,105.734456 C59.1841433,105.443533 59.4262072,105.102626 59.6033679,104.727461 C59.7801254,104.373893 59.8738694,103.984651 59.8774611,103.589378 L59.8774611,101.891192 L63.1130104,101.891192 L63.1129534,103.470207 C63.1161263,104.19074 62.986864,104.905723 62.7316062,105.579534 C62.2291415,106.919387 61.3262108,108.071976 60.1455959,108.88057 C59.5609086,109.28199 58.9149458,109.585855 58.2329016,109.780311 L58.2329016,114.868912 L54.9974093,114.868912 L54.9974093,109.762435 C54.3112837,109.571098 53.6625472,109.264862 53.0787565,108.856736 C52.4959111,108.457131 51.9775014,107.970871 51.5414508,107.414767 C51.1021607,106.861915 50.7541528,106.242341 50.5106218,105.579534 C50.2619933,104.904265 50.1368575,104.18978 50.1411917,103.470207 L50.1410829,101.891192 L53.3766839,101.891192 L53.3766839,103.619171 C53.3782134,104.014003 53.4699249,104.403267 53.6448187,104.757254 C53.8262732,105.131394 54.0700826,105.471921 54.3658031,105.764249 C54.6578375,106.058743 54.9985007,106.300634 55.3727979,106.479275 C55.7253906,106.65869 56.1152661,106.752587 56.5108808,106.753368 L56.7373057,106.723575 Z" id="Path" fill="#FFFFFF"></path>
                    <path d="M87.8290155,105.073057 C87.4323417,105.075138 87.041262,105.166797 86.6849741,105.341192 C86.3124879,105.519904 85.9737962,105.761826 85.6839378,106.056218 C85.3921615,106.351889 85.148844,106.691729 84.9629534,107.063212 C84.7885591,107.4195 84.6968998,107.81058 84.6948187,108.207254 L84.6948187,108.445596 C84.6976291,108.844092 84.7892283,109.236951 84.9629534,109.595596 C85.3294615,110.351004 85.9346748,110.964594 86.6849741,111.341451 C87.0394759,111.52217 87.4311223,111.618042 87.8290155,111.621503 L88.0554404,111.621503 C88.453498,111.619365 88.8454454,111.523419 89.1994819,111.341451 C89.5729527,111.156351 89.913215,110.910717 90.2064767,110.614508 C90.4987347,110.330487 90.7423109,110.000351 90.9274611,109.637306 C91.0984357,109.277693 91.1898907,108.885453 91.1955959,108.487306 L91.1955959,108.237047 C91.190542,107.84073 91.0990335,107.450294 90.9274611,107.093005 C90.7415705,106.721522 90.498253,106.381682 90.2064767,106.08601 C89.9144423,105.791516 89.5737791,105.549625 89.1994819,105.370984 C88.8436176,105.195406 88.452261,105.103681 88.0554404,105.10285 L87.8290155,105.073057 Z M85.4932642,114.34456 C83.9369229,113.638412 82.6898267,112.391315 81.9836788,110.834974 C81.6336692,110.061809 81.4528644,109.222793 81.4533679,108.374093 C81.4515513,107.51566 81.6323202,106.666655 81.9836788,105.88342 C82.6847184,104.320712 83.9329418,103.06825 85.4932642,102.361917 C86.2737461,102.008572 87.1212475,101.82769 87.9779793,101.831606 C88.8248272,101.830478 89.6620309,102.01133 90.4329016,102.361917 C91.2038,102.704477 91.9016876,103.191987 92.488601,103.797927 C93.0786358,104.39985 93.5568191,105.101993 93.9007772,105.871503 C94.2541811,106.643544 94.4351475,107.48331 94.4310881,108.332383 C94.4332934,109.1851 94.2524503,110.028357 93.9007772,110.805181 C93.558388,111.57911 93.0801064,112.285433 92.488601,112.890674 C91.9003131,113.496525 91.2028456,113.985763 90.4329016,114.332642 C89.663794,114.689852 88.8259919,114.874901 87.9779793,114.87487 C87.1212475,114.878786 86.2737461,114.697905 85.4932642,114.34456 Z" id="Shape" fill="#FFFFFF" fill-rule="nonzero"></path>
                    <polygon id="Path" fill="#FFFFFF" points="105.782124 105.084974 102.564508 105.084974 102.564508 114.839119 99.3290155 114.839119 99.3290155 105.084974 96.1292746 105.084974 96.1292746 101.867358 105.782124 101.867358"></polygon>
                    <path d="M116.698187,106.735492 L116.698187,109.970984 L110.739637,109.970984 C111.036231,110.457513 111.444819,110.866101 111.931347,111.162694 C112.379745,111.461839 112.905809,111.623386 113.444819,111.627461 L116.704145,111.627461 L116.704145,114.86895 L113.587824,114.868912 C112.7331,114.871971 111.887721,114.691109 111.109067,114.338601 C110.337825,113.992526 109.635374,113.510095 109.035492,112.914508 C108.432034,112.323199 107.94493,111.623871 107.599482,110.85285 C106.900199,109.28055 106.900199,107.485512 107.599482,105.913212 C108.301052,104.353706 109.549561,103.105197 111.109067,102.403627 C111.887008,102.048959 112.732866,101.867995 113.587824,101.873316 L116.704145,101.873202 L116.704145,105.114767 L113.444819,105.114767 C112.905809,105.118842 112.379745,105.280389 111.931347,105.579534 C111.444819,105.876127 111.036231,106.284715 110.739637,106.771244 L116.698187,106.735492 Z" id="Path" fill="#FFFFFF"></path>
                    <path d="M128.108808,114.839233 L126.261658,114.839119 C125.4067,114.844441 124.560843,114.663476 123.782902,114.308808 C123.010219,113.962683 122.307439,113.478008 121.709326,112.878756 C121.110183,112.279271 120.623766,111.576894 120.273316,110.805181 C119.923262,110.023838 119.744475,109.176629 119.748964,108.320466 L119.748881,101.891192 L122.984456,101.891192 L122.984456,108.445596 C122.985917,108.842343 123.077608,109.233559 123.252591,109.589637 C123.435508,109.962905 123.679151,110.303201 123.973575,110.596632 C124.263434,110.891023 124.602125,111.132946 124.974611,111.311658 C125.329538,111.490518 125.721209,111.584356 126.118653,111.585751 L128.108808,111.585751 L128.108808,114.839233 Z" id="Path" fill="#FFFFFF"></path>
                    <path d="M47.4240933,104.077979 C46.7790289,103.148827 45.851102,102.452881 44.7784974,102.093782 C44.3336569,101.933271 43.8629442,101.856502 43.3901554,101.867358 C42.199155,101.92153 41.0666064,102.39906 40.1963731,103.21399 C39.3291328,102.398125 38.1980599,101.920326 37.0085492,101.867358 C36.5357318,101.856087 36.0649432,101.932868 35.6202073,102.093782 C34.5476026,102.452881 33.6196757,103.148827 32.9746114,104.077979 C32.3590168,105.072776 32.052134,106.227734 32.0927461,107.396891 L32.0927461,114.839119 L35.3222798,114.839119 L35.3222798,106.830829 C35.3222798,105.939018 36.0452355,105.216062 36.9370466,105.216062 C37.8288577,105.216062 38.5518135,105.939018 38.5518135,106.830829 L38.5518135,114.839119 L41.8468912,114.839119 L41.8468912,106.830829 C41.8104405,106.231605 42.1094251,105.661624 42.6231423,105.350992 C43.1368595,105.040359 43.780498,105.040359 44.2942152,105.350992 C44.8079324,105.661624 45.106917,106.231605 45.0704663,106.830829 L45.0704663,114.839119 L48.3059585,114.839119 L48.3059585,107.396891 C48.3465707,106.227734 48.0396878,105.072776 47.4240933,104.077979" id="Path" fill="#FFFFFF"></path>
                    <path d="M25.6217617,101.891192 L25.6217617,106.658031 C24.5981405,106.343787 23.5344565,106.179217 22.4637306,106.16943 C21.3992897,106.159549 20.3404565,106.324614 19.3295337,106.658031 L19.3295337,101.891192 L16.0880829,101.891192 L16.0880829,114.862953 L19.3056995,114.862953 L19.3056995,110.006736 C20.3166223,109.673319 21.3754555,109.508253 22.4398964,109.518135 C23.5106223,109.527922 24.5743063,109.692492 25.5979275,110.006736 L25.5979275,114.862953 L28.8334197,114.862953 L28.8334197,101.891192 L25.6217617,101.891192 Z" id="Path" fill="#FFFFFF"></path>
                    <path d="M75.6735751,101.891192 L75.6735751,106.658031 C74.6499539,106.343787 73.5862699,106.179217 72.515544,106.16943 C71.4511032,106.159549 70.3922699,106.324614 69.3813472,106.658031 L69.3813472,101.891192 L66.1398964,101.891192 L66.1398964,114.862953 L69.3753886,114.862953 L69.3753886,110.006736 C70.3863114,109.673319 71.4451447,109.508253 72.5095855,109.518135 C73.5803114,109.527922 74.6439954,109.692492 75.6676166,110.006736 L75.6676166,114.862953 L78.9031088,114.862953 L78.9031088,101.891192 L75.6735751,101.891192 Z" id="Path" fill="#FFFFFF"></path>
                    <path d="M137.195596,108.082124 C137.624611,108.082124 137.994041,108.082124 138.309845,108.082124 C138.625648,108.082124 138.989119,108.082124 139.376425,108.082124 C139.376425,108.356218 139.376425,108.59456 139.376425,108.79715 C139.356382,109.021122 139.324559,109.243883 139.281088,109.464508 C139.236837,109.703918 139.179146,109.940648 139.10829,110.173575 C139.036788,110.394041 138.965285,110.590674 138.899741,110.76943 C138.834197,110.948187 138.73886,111.126943 138.619689,111.365285 C138.887824,111.740674 139.144041,112.080311 139.388342,112.378238 C139.632642,112.676166 139.84715,112.974093 140.031865,113.224352 L138.595855,113.224352 L137.21943,113.224352 L136.718912,112.527202 C136.516321,112.676166 136.337565,112.795337 136.19456,112.884715 C136.024313,112.988535 135.844784,113.076305 135.65829,113.146891 C135.434171,113.232777 135.202865,113.29858 134.967098,113.343523 C134.723116,113.386283 134.475938,113.40821 134.228238,113.409067 C133.612864,113.421286 133.002412,113.297161 132.440674,113.045596 C131.931312,112.818865 131.511999,112.428904 131.248964,111.937306 C130.977041,111.451313 130.83541,110.903262 130.837824,110.346373 C130.830202,109.735432 131.004425,109.136023 131.338342,108.624352 C131.798666,108.007606 132.399143,107.509251 133.090155,107.170466 C132.951099,106.915468 132.841168,106.645637 132.762435,106.366062 C132.700406,106.157137 132.668308,105.940474 132.667098,105.722539 C132.669928,105.390533 132.745167,105.063143 132.887565,104.763212 C133.037862,104.452814 133.258149,104.181535 133.531088,103.970725 C133.784292,103.760303 134.081629,103.609598 134.401036,103.529793 C134.736511,103.448946 135.080874,103.410906 135.425907,103.41658 C136.13718,103.421708 136.845299,103.511723 137.535233,103.684715 L137.570984,105.573575 L137.570984,105.871503 C137.336622,105.758693 137.093514,105.665037 136.844041,105.591451 C136.664766,105.54611 136.480762,105.52211 136.295855,105.519948 C136.110584,105.515532 135.92628,105.547937 135.753627,105.615285 C135.605902,105.671184 135.480401,105.773676 135.396114,105.907254 C135.321495,106.027318 135.280349,106.165155 135.276943,106.306477 C135.277496,106.397006 135.289509,106.4871 135.312694,106.574611 C135.350943,106.705063 135.39874,106.832523 135.455699,106.955959 C135.553414,107.160701 135.662835,107.359649 135.78342,107.551813 C135.932383,107.784197 136.051554,107.968912 136.15285,108.105959 C136.254145,108.243005 136.39715,108.42772 136.593782,108.701813 L137.094301,109.357254 C137.117371,109.268993 137.135277,109.179463 137.147927,109.089119 C137.147927,109.017617 137.147927,108.898446 137.183679,108.725648 C137.21943,108.55285 137.189637,108.302591 137.195596,108.082124 Z M135.533161,110.829016 C135.37228,110.602591 135.169689,110.334456 134.937306,110.012694 C134.704922,109.690933 134.430829,109.345337 134.162694,108.969948 C134.025648,109.065285 133.918394,109.148705 133.840933,109.20829 C133.762596,109.265965 133.690681,109.331887 133.626425,109.404922 C133.5567,109.479284 133.49846,109.563632 133.453627,109.655181 C133.403805,109.74807 133.363863,109.845929 133.334456,109.94715 C133.310458,110.044634 133.298452,110.144684 133.298705,110.245078 C133.29368,110.454267 133.347348,110.660682 133.453627,110.840933 C133.554909,111.007668 133.701677,111.142033 133.876684,111.228238 C134.063061,111.315765 134.266636,111.360552 134.472539,111.359326 C134.616158,111.36028 134.758998,111.33815 134.895596,111.293782 C135.010373,111.256746 135.118862,111.202501 135.217358,111.132902 C135.330706,111.040354 135.436323,110.938722 135.533161,110.829016 Z" id="Shape" fill="#FFFFFF" fill-rule="nonzero"></path>
                    <path d="M148.284456,105.055181 L148.058031,105.055181 C147.661357,105.057262 147.270278,105.148922 146.91399,105.323316 C146.539692,105.501957 146.199029,105.743848 145.906995,106.038342 C145.613836,106.331507 145.372117,106.671928 145.191969,107.045337 C145.015901,107.40128 144.922221,107.792293 144.917876,108.189378 L144.917876,108.481347 C144.921467,108.87662 145.015211,109.265862 145.191969,109.61943 C145.554845,110.371571 146.161849,110.978575 146.91399,111.341451 C147.268916,111.520311 147.660587,111.614149 148.058031,111.615544 L148.284456,111.615544 C148.824462,111.612177 149.351273,111.448326 149.797927,111.144819 C150.284456,110.848225 150.693044,110.439637 150.989637,109.953109 L153.563731,111.87772 C153.129581,112.429981 152.651327,112.946096 152.133679,113.420984 C151.585317,113.865166 150.967202,114.215498 150.304404,114.457772 C149.641875,114.70826 148.939125,114.835482 148.230829,114.833161 C147.375871,114.838482 146.530014,114.657517 145.752073,114.30285 C144.978463,113.960459 144.273763,113.479889 143.672539,112.884715 C143.072107,112.289864 142.587221,111.588801 142.242487,110.817098 C141.892477,110.043933 141.711673,109.204917 141.712176,108.356218 C141.710903,107.497841 141.891648,106.648949 142.242487,105.865544 C142.586872,105.088356 143.071667,104.381363 143.672539,103.780052 C144.272804,103.177584 144.977391,102.689016 145.752073,102.338083 C147.190343,101.673043 148.836267,101.617176 150.316321,102.183161 C150.975991,102.432154 151.593076,102.781903 152.145596,103.219948 C152.65874,103.695695 153.132967,104.211765 153.563731,104.763212 L150.989637,106.675907 C150.693044,106.189379 150.284456,105.78079 149.797927,105.484197 C149.345622,105.197658 148.819845,105.048619 148.284456,105.055181 Z" id="Path" fill="#FFFFFF"></path>
                    <path d="M158.765544,114.320725 C157.208036,113.619233 155.960096,112.373413 155.255959,110.817098 C154.905949,110.043933 154.725144,109.204917 154.725648,108.356218 C154.723101,107.497708 154.903902,106.648552 155.255959,105.865544 C155.95234,104.299636 157.202006,103.045727 158.765544,102.344041 C160.336224,101.637171 162.134501,101.637171 163.705181,102.344041 C164.474089,102.68749 165.171467,103.172622 165.760881,103.774093 C166.350714,104.378441 166.828826,105.082496 167.173057,105.853627 C167.880196,107.420093 167.880196,109.214881 167.173057,110.781347 C166.491619,112.345988 165.25679,113.604156 163.705181,114.314767 C162.136177,115.029401 160.334548,115.029401 158.765544,114.314767 L158.765544,114.320725 Z M161.101295,105.055181 C160.704622,105.057262 160.313542,105.148922 159.957254,105.323316 C159.205113,105.686192 158.598109,106.293196 158.235233,107.045337 C158.060839,107.401625 157.96918,107.792704 157.967098,108.189378 L157.967098,108.445596 C157.969909,108.844092 158.061508,109.236951 158.235233,109.595596 C158.41216,109.974432 158.65417,110.319295 158.950259,110.614508 C159.246199,110.907572 159.585925,111.152819 159.957254,111.341451 C160.311756,111.52217 160.703402,111.618042 161.101295,111.621503 L161.32772,111.621503 C161.725613,111.618042 162.11726,111.52217 162.471762,111.341451 C162.844023,111.154352 163.183979,110.908941 163.478756,110.614508 C163.774846,110.319295 164.016855,109.974432 164.193782,109.595596 C164.365449,109.236474 164.455008,108.843637 164.455959,108.445596 L164.455959,108.195337 C164.453877,107.798663 164.362218,107.407583 164.187824,107.051295 C164.007675,106.677886 163.765956,106.337466 163.472798,106.044301 C163.180764,105.749806 162.8401,105.507915 162.465803,105.329275 C162.109515,105.15488 161.718435,105.063221 161.321762,105.06114 L161.101295,105.055181 Z" id="Shape" fill="#FFFFFF" fill-rule="nonzero"></path>
                    <path d="M105.251813,0.53626943 C104.460221,0.4504084 103.664628,0.406650742 102.868394,0.405181347 C91.3207254,0.405181347 81.9598446,9.53367876 81.8823834,20.8549223 C82.6736508,20.9453485 83.469386,20.9911033 84.2658031,20.9919689 C95.8134715,20.9860104 105.180311,11.8455959 105.251813,0.53626943 Z" id="Path" fill="url(#linearGradient-9)"></path>
                    <path d="M115.434974,43.2948187 C109.433454,31.6748505 97.4334221,24.3910887 84.3551813,24.4300518 C79.4018299,25.1827009 74.7377605,27.2391689 70.8411917,30.388601 C69.809096,31.2374554 68.8356285,32.1551825 67.9274611,33.1354922 C60.553273,41.1096979 58.3952168,52.6015784 62.3740933,62.707772 C62.1899399,61.5449331 62.0963082,60.3695562 62.0940415,59.192228 C62.0958376,51.5140051 66.063804,44.3814442 72.5868187,40.3310875 C79.1098333,36.2807307 87.2623411,35.887286 94.1450777,39.2906736 C98.8097255,40.4068448 103.104836,42.7145431 106.610363,45.9880829 C111.174472,50.21432 114.208735,55.8344122 115.238342,61.9689119 C116.287047,68.088342 115.732902,74.75 112.259067,80.1365285 C120.28807,69.4784151 121.521536,55.1697517 115.434974,43.2948187 Z" id="Path" fill="url(#linearGradient-10)"></path>
                    <path d="M115.238342,61.9689119 C113.646179,52.6672544 107.523685,44.7705786 98.9119171,40.911399 C97.3738505,40.231703 95.7786914,39.6893489 94.1450777,39.2906736 C101.119322,42.7395383 105.779285,49.5875638 106.427935,57.3408857 C107.076585,65.0942077 103.619261,72.6213331 97.3150259,77.1810881 L97.2196891,77.288342 C86.6186716,88.7342652 68.7472362,89.4224488 57.2974093,78.8256477 C55.4988601,77.2764751 53.9617112,75.4475899 52.7450777,73.4093264 C57.529612,84.0554762 67.3313032,91.595179 78.8485363,93.4887511 C90.3657694,95.3823233 102.065485,91.3777113 110.006736,82.8238342 C110.844713,81.9854478 111.606437,81.0741697 112.282902,80.1007772 C115.259355,74.5544549 116.299456,68.1733458 115.238342,61.9689119 Z" id="Path" fill="url(#linearGradient-11)"></path>
                    <path d="M115.238342,61.9689119 C116.300395,68.1875695 115.251655,74.5827842 112.259067,80.1365285 C115.732902,74.7261658 116.287047,68.0645078 115.238342,61.9689119 Z" id="Path" fill="url(#linearGradient-12)"></path>
                    <path d="M115.238342,61.9689119 C116.300395,68.1875695 115.251655,74.5827842 112.259067,80.1365285 C115.732902,74.7261658 116.287047,68.0645078 115.238342,61.9689119 Z" id="Path" fill="url(#linearGradient-13)"></path>
                    <path d="M57.2497409,78.8256477 C62.7446543,83.9219636 70.0407782,86.6237402 77.5296598,86.3353623 C85.0185413,86.0469845 92.0852905,82.7921302 97.1720207,77.288342 L97.2673575,77.1810881 C91.0212375,81.7026935 82.8763174,82.6595438 75.7523399,79.7086329 C68.6283624,76.757722 63.5457263,70.321722 62.3264249,62.707772 C58.3600451,52.5926223 60.53684,41.0996082 67.9274611,33.1354922 C68.8356285,32.1551825 69.809096,31.2374554 70.8411917,30.388601 C74.7377605,27.2391689 79.4018299,25.1827009 84.3551813,24.4300518 C74.6994322,24.4505704 65.4886517,28.4924319 58.9360104,35.584456 C58.5427461,36.0134715 58.161399,36.4484456 57.7860104,36.8893782 C49.0209845,47.3406736 46.5183938,62.0404145 52.6974093,73.4391192 C53.9856387,75.416439 55.5148223,77.2258395 57.2497409,78.8256477 Z" id="Path" fill="url(#linearGradient-14)"></path>
                    <path d="M57.2497409,78.8256477 C55.5128942,77.2166071 53.983634,75.3971077 52.6974093,73.4093264 C53.9140428,75.4475899 55.4511917,77.2764751 57.2497409,78.8256477 Z" id="Path" fill="url(#linearGradient-15)"></path>
                    <path d="M57.2497409,78.8256477 C55.5128942,77.2166071 53.983634,75.3971077 52.6974093,73.4093264 C53.9140428,75.4475899 55.4511917,77.2764751 57.2497409,78.8256477 Z" id="Path" fill="url(#linearGradient-16)"></path>
                </g>
            </g>
        </g>
    </g>
</svg>